<?xml version="1.0" encoding="UTF-8" standalone="no"?>
<!DOCTYPE svg PUBLIC "-//W3C//DTD SVG 1.1//EN" "http://www.w3.org/Graphics/SVG/1.1/DTD/svg11.dtd">
<svg width="100%" height="100%" viewBox="0 0 26 26" version="1.1" xmlns="http://www.w3.org/2000/svg" xmlns:xlink="http://www.w3.org/1999/xlink" xml:space="preserve" xmlns:serif="http://www.serif.com/" style="fill-rule:evenodd;clip-rule:evenodd;stroke-linecap:round;stroke-linejoin:round;stroke-miterlimit:2;">
    <g transform="matrix(1,0,0,1,-84,-84)">
        <g id="help" transform="matrix(1,0,0,1,84,84)">
            <rect x="0" y="0" width="26" height="26" style="fill:rgb(68,0,255);fill-opacity:0;"/>
            <g transform="matrix(2.62236,0,0,2.62236,-233.988,-226.487)">
                <path d="M96.301,89.514C96.301,89.858 96.252,90.163 96.154,90.428C96.056,90.694 95.92,90.921 95.744,91.108C95.568,91.296 95.357,91.442 95.111,91.548C94.865,91.653 94.592,91.716 94.291,91.735L94.25,93.147C94.25,93.206 94.216,93.25 94.147,93.279C94.079,93.308 93.969,93.323 93.816,93.323C93.734,93.323 93.664,93.32 93.605,93.314C93.547,93.308 93.5,93.299 93.465,93.285C93.429,93.271 93.404,93.253 93.388,93.229C93.373,93.206 93.365,93.178 93.365,93.147L93.33,91.524C93.326,91.434 93.333,91.361 93.35,91.304C93.368,91.248 93.394,91.201 93.429,91.164C93.465,91.127 93.51,91.101 93.564,91.088C93.619,91.074 93.681,91.067 93.752,91.067L93.881,91.067C94.135,91.067 94.351,91.027 94.531,90.947C94.711,90.867 94.856,90.76 94.968,90.628C95.079,90.495 95.16,90.339 95.211,90.159C95.261,89.979 95.287,89.792 95.287,89.596C95.287,89.374 95.256,89.17 95.193,88.984C95.131,88.799 95.037,88.638 94.912,88.504C94.787,88.369 94.63,88.264 94.44,88.19C94.251,88.116 94.027,88.079 93.769,88.079C93.543,88.079 93.344,88.103 93.175,88.152C93.005,88.201 92.857,88.255 92.732,88.313C92.607,88.372 92.505,88.425 92.425,88.471C92.344,88.518 92.285,88.542 92.246,88.542C92.219,88.542 92.194,88.536 92.173,88.524C92.151,88.512 92.133,88.49 92.117,88.457C92.101,88.424 92.09,88.379 92.082,88.322C92.074,88.265 92.07,88.194 92.07,88.108C92.07,88.014 92.076,87.943 92.088,87.894C92.099,87.845 92.125,87.802 92.164,87.765C92.203,87.728 92.278,87.679 92.389,87.619C92.501,87.558 92.636,87.503 92.794,87.452C92.952,87.401 93.126,87.358 93.315,87.323C93.505,87.288 93.701,87.27 93.904,87.27C94.322,87.27 94.681,87.33 94.982,87.449C95.283,87.568 95.531,87.729 95.726,87.932C95.922,88.135 96.066,88.374 96.16,88.647C96.254,88.921 96.301,89.21 96.301,89.514ZM94.449,94.712C94.449,94.841 94.44,94.947 94.423,95.031C94.405,95.115 94.373,95.183 94.326,95.236C94.279,95.289 94.216,95.326 94.136,95.347C94.055,95.369 93.957,95.38 93.84,95.38C93.715,95.38 93.613,95.369 93.535,95.347C93.457,95.326 93.393,95.289 93.344,95.236C93.296,95.183 93.262,95.115 93.245,95.031C93.227,94.947 93.219,94.841 93.219,94.712C93.219,94.583 93.227,94.474 93.245,94.386C93.262,94.299 93.296,94.23 93.344,94.181C93.393,94.133 93.457,94.097 93.535,94.076C93.613,94.054 93.715,94.044 93.84,94.044C93.957,94.044 94.055,94.054 94.136,94.076C94.216,94.097 94.279,94.133 94.326,94.181C94.373,94.23 94.405,94.299 94.423,94.386C94.44,94.474 94.449,94.583 94.449,94.712Z" style="fill:white;fill-rule:nonzero;stroke:white;stroke-width:0.08px;"/>
            </g>
        </g>
    </g>
</svg>
