<?xml version="1.0" encoding="UTF-8" standalone="no"?>
<!DOCTYPE svg PUBLIC "-//W3C//DTD SVG 1.1//EN" "http://www.w3.org/Graphics/SVG/1.1/DTD/svg11.dtd">
<svg width="100%" height="100%" viewBox="0 0 26 26" version="1.1" xmlns="http://www.w3.org/2000/svg" xmlns:xlink="http://www.w3.org/1999/xlink" xml:space="preserve" xmlns:serif="http://www.serif.com/" style="fill-rule:evenodd;clip-rule:evenodd;stroke-linecap:round;stroke-linejoin:round;stroke-miterlimit:1;">
    <g transform="matrix(1,0,0,1,0,-56)">
        <g id="maximize" transform="matrix(1,0,0,1,0,56)">
            <rect x="0" y="0" width="26" height="26" style="fill:rgb(68,0,255);fill-opacity:0;"/>
            <g transform="matrix(1.08948,0,0,1.08948,-0.550698,-64.2432)">
                <path d="M18.26,67.576L18.26,77.566C18.26,78.945 17.14,80.065 15.761,80.065L5.771,80.065C4.391,80.065 3.271,78.945 3.271,77.566L3.271,67.576C3.271,66.196 4.391,65.076 5.771,65.076L15.761,65.076C17.14,65.076 18.26,66.196 18.26,67.576Z" style="fill:rgb(68,0,255);fill-opacity:0;stroke:white;stroke-width:1.84px;"/>
            </g>
            <g transform="matrix(0.948692,0,0,1.08536,1.32131,-61.6237)">
                <path d="M21.284,60.911L11.054,60.911C10.688,60.911 10.39,60.651 10.39,60.33L10.39,60.134C10.39,59.814 10.688,59.554 11.054,59.554L22.173,59.554C22.54,59.554 22.837,59.814 22.837,60.134L22.837,69.853C22.837,70.173 22.54,70.433 22.173,70.433L21.949,70.433C21.582,70.433 21.284,70.173 21.284,69.853L21.284,60.911Z" style="fill:white;stroke:white;stroke-width:0.13px;"/>
            </g>
        </g>
    </g>
</svg>
