<?xml version="1.0" encoding="UTF-8" standalone="no"?>
<!DOCTYPE svg PUBLIC "-//W3C//DTD SVG 1.1//EN" "http://www.w3.org/Graphics/SVG/1.1/DTD/svg11.dtd">
<svg width="100%" height="100%" viewBox="0 0 26 26" version="1.1" xmlns="http://www.w3.org/2000/svg" xmlns:xlink="http://www.w3.org/1999/xlink" xml:space="preserve" xmlns:serif="http://www.serif.com/" style="fill-rule:evenodd;clip-rule:evenodd;stroke-linejoin:round;stroke-miterlimit:2;">
    <g transform="matrix(1,0,0,1,-28,-84)">
        <g id="random" transform="matrix(1,0,0,1,28,84)">
            <rect x="0" y="0" width="26" height="26" style="fill:rgb(68,0,255);fill-opacity:0;"/>
            <g transform="matrix(0.872616,0.456995,0,0.970768,-24.3832,-98.0443)">
                <path d="M42.732,94.73L42.732,104.821C42.732,105.07 42.555,105.272 42.338,105.272L32.132,105.272C31.915,105.272 31.739,105.07 31.739,104.821L31.739,94.73C31.739,94.481 31.915,94.279 32.132,94.279L42.338,94.279C42.555,94.279 42.732,94.481 42.732,94.73ZM34.35,101.61C33.65,101.608 33.098,102.258 33.117,103.062C33.135,103.865 33.718,104.519 34.418,104.522C35.117,104.524 35.669,103.874 35.651,103.07C35.632,102.267 35.049,101.612 34.35,101.61ZM40.053,95.03C39.354,95.027 38.801,95.678 38.82,96.481C38.839,97.285 39.422,97.939 40.121,97.941C40.82,97.944 41.373,97.293 41.354,96.49C41.335,95.686 40.752,95.032 40.053,95.03ZM34.193,95.01C33.494,95.007 32.941,95.658 32.96,96.461C32.979,97.265 33.562,97.919 34.261,97.922C34.96,97.924 35.513,97.273 35.494,96.47C35.475,95.666 34.892,95.012 34.193,95.01ZM40.21,101.63C39.51,101.627 38.958,102.278 38.977,103.081C38.995,103.885 39.578,104.539 40.278,104.542C40.977,104.544 41.529,103.894 41.511,103.09C41.492,102.286 40.909,101.632 40.21,101.63Z" style="fill:white;"/>
            </g>
            <g transform="matrix(0.872616,-0.456995,0,-0.970768,-14.6012,129.707)">
                <path d="M42.732,94.73C42.732,94.481 42.555,94.279 42.338,94.279L32.132,94.279C31.915,94.279 31.739,94.481 31.739,94.73L31.739,104.821C31.739,105.07 31.915,105.272 32.132,105.272L42.338,105.272C42.555,105.272 42.732,105.07 42.732,104.821L42.732,94.73ZM37.284,101.216C36.546,101.322 35.947,100.804 35.946,100.06C35.946,99.315 36.544,98.624 37.282,98.518C38.019,98.412 38.619,98.93 38.619,99.674C38.62,100.418 38.021,101.109 37.284,101.216ZM39.959,104.05C39.221,104.156 38.622,103.638 38.622,102.894C38.621,102.149 39.219,101.459 39.957,101.352C40.695,101.246 41.294,101.764 41.295,102.508C41.295,103.253 40.697,103.944 39.959,104.05ZM34.514,98.199C33.776,98.306 33.177,97.788 33.176,97.043C33.176,96.299 33.774,95.608 34.512,95.501C35.249,95.395 35.849,95.913 35.849,96.658C35.85,97.402 35.251,98.093 34.514,98.199Z" style="fill:white;"/>
            </g>
            <g transform="matrix(0.881235,-0.461508,-2.98802e-17,-0.372733,-15.0535,62.653)">
                <path d="M20.939,121.637L20.939,121.713C20.95,121.927 21.012,122.09 21.086,122.09L31.78,122.09L31.793,122.088C31.807,122.087 31.82,122.077 31.834,122.06C31.848,122.042 31.862,122.018 31.875,121.987L31.889,121.956L42.582,95.475C42.656,95.291 42.718,94.975 42.73,94.732L42.73,94.656C42.718,94.443 42.656,94.279 42.582,94.279L31.889,94.279L31.875,94.281C31.862,94.283 31.848,94.293 31.834,94.31C31.82,94.327 31.807,94.351 31.793,94.382L31.78,94.414L21.086,120.895C21.012,121.079 20.95,121.395 20.939,121.637ZM31.834,111.594C31.051,112.563 30.415,111.823 30.415,109.942C30.415,108.061 31.051,105.746 31.834,104.776C32.618,103.806 33.254,104.546 33.254,106.427C33.254,108.309 32.618,110.624 31.834,111.594Z" style="fill:white;"/>
            </g>
        </g>
    </g>
</svg>
